<mxfile host="65bd71144e">
    <diagram name="Page-1" id="cTTbBVW-SHMXRIQHrOnZ">
        <mxGraphModel dx="942" dy="928" grid="1" gridSize="10" guides="1" tooltips="1" connect="1" arrows="1" fold="1" page="1" pageScale="1" pageWidth="850" pageHeight="1100" math="1" shadow="0">
            <root>
                <mxCell id="0"/>
                <mxCell id="1" parent="0"/>
                <mxCell id="2" value="&lt;h1 style=&quot;&quot;&gt;&lt;font style=&quot;font-size: 72px;&quot;&gt;&lt;font style=&quot;font-family: Verdana;&quot; color=&quot;#009999&quot;&gt;`\mathbb{Z}`&lt;/font&gt;&lt;span style=&quot;font-weight: normal;&quot;&gt;&amp;nbsp;&lt;font color=&quot;#6a8cbd&quot;&gt;mod&lt;/font&gt;&lt;font face=&quot;Verdana&quot;&gt;&amp;nbsp;&lt;font color=&quot;#009999&quot;&gt;`n`&lt;/font&gt;&lt;/font&gt;&lt;/span&gt;&lt;/font&gt;&lt;/h1&gt;" style="rounded=1;whiteSpace=wrap;html=1;fillColor=none;strokeColor=none;" parent="1" vertex="1">
                    <mxGeometry x="10" y="240" width="330" height="100" as="geometry"/>
                </mxCell>
            </root>
        </mxGraphModel>
    </diagram>
</mxfile>
